<svg width="13" height="12" viewBox="0 0 13 12" fill="none" xmlns="http://www.w3.org/2000/svg">
<path d="M6.06724 0.173835C6.1044 0.10127 6.2081 0.10127 6.24526 0.173834L8.08547 3.76772C8.1 3.79609 8.12717 3.81583 8.15864 3.82088L12.1453 4.46045C12.2258 4.47337 12.2578 4.572 12.2003 4.62976L9.35096 7.49048C9.32847 7.51306 9.31809 7.54501 9.32302 7.57649L9.94669 11.5657C9.95928 11.6462 9.87538 11.7072 9.80267 11.6703L6.20147 9.84443C6.17305 9.83002 6.13945 9.83002 6.11103 9.84443L2.50983 11.6703C2.43712 11.7072 2.35322 11.6462 2.36581 11.5657L2.98948 7.57649C2.99441 7.54501 2.98403 7.51306 2.96154 7.49048L0.112204 4.62976C0.0546726 4.572 0.0867199 4.47337 0.167215 4.46045L4.15386 3.82088C4.18533 3.81583 4.2125 3.79609 4.22703 3.76772L6.06724 0.173835Z" fill="#C4C4C4"/>
</svg>
